<svg id="Layer_1" data-name="Layer 1" xmlns="http://www.w3.org/2000/svg" viewBox="0 0 728 73"><defs><style>.cls-1{fill:#4a4a4a;}.cls-2{fill:#e6802e;}</style></defs><title>chaturlytics-logo</title><path class="cls-1" d="M32.68,51.9v4.4a15.92,15.92,0,0,1-1.25,6.25A17.46,17.46,0,0,1,28,67.8a16.81,16.81,0,0,1-5.15,3.65,15.11,15.11,0,0,1-6.35,1.35,22.94,22.94,0,0,1-5.9-.8,14,14,0,0,1-5.4-2.8,15.41,15.41,0,0,1-3.95-5.15A18.13,18.13,0,0,1-.32,56V16.8a17.35,17.35,0,0,1,1.2-6.5,15.28,15.28,0,0,1,3.4-5.2A15.57,15.57,0,0,1,9.53,1.65,17.68,17.68,0,0,1,16.28.4,15.48,15.48,0,0,1,28,5.1a16.88,16.88,0,0,1,3.45,5.45,18.46,18.46,0,0,1,1.25,6.85v4H22.48V18a8.28,8.28,0,0,0-1.7-5.2,5.51,5.51,0,0,0-4.6-2.2q-3.81,0-5,2.35A12.52,12.52,0,0,0,9.88,18.9V55.3a9.42,9.42,0,0,0,1.35,5.2c.9,1.4,2.51,2.1,4.85,2.1a7.58,7.58,0,0,0,2.15-.35,6.51,6.51,0,0,0,2.15-1.15,6.1,6.1,0,0,0,1.5-2.2,8.9,8.9,0,0,0,.6-3.5V51.9Z"/><path class="cls-1" d="M56,72.2V1h10.2V31.5h12.6V1H89V72.2H78.78V40.5H66.18V72.2Z"/><path class="cls-1" d="M109,72.2,124.88,1h8.5l15.9,71.2h-10.2l-3-15.3h-13.9l-3,15.3Zm25.2-24.9-5-25.8H129l-5,25.8Z"/><path class="cls-1" d="M170.48,72.2V10.6h-11.8V1h33.8v9.6h-11.8V72.2Z"/><path class="cls-1" d="M245,1V56.2a16.12,16.12,0,0,1-4.8,11.7,17,17,0,0,1-5.29,3.6,15.9,15.9,0,0,1-6.41,1.3,15.55,15.55,0,0,1-6.35-1.3,17.26,17.26,0,0,1-5.24-3.6,17,17,0,0,1-3.61-5.25A16,16,0,0,1,212,56.2V1h10.2V55.2q0,3.79,1.8,5.6a6.52,6.52,0,0,0,9,0q1.8-1.8,1.8-5.6V1Z"/><path class="cls-1" d="M269.57,72.2V1H286q18,0,18,20.9a26.33,26.33,0,0,1-2,10.7,15.12,15.12,0,0,1-6.85,7.1l11,32.5h-10.8l-9.5-30.4h-6.1V72.2Zm10.2-61.6V32.8h5.8a10.24,10.24,0,0,0,4.3-.75,5.85,5.85,0,0,0,2.5-2.15,9.6,9.6,0,0,0,1.1-3.45,33.21,33.21,0,0,0,.3-4.75,33.21,33.21,0,0,0-.3-4.75,9.49,9.49,0,0,0-1.2-3.55q-1.89-2.81-7.2-2.8Z"/><path class="cls-1" d="M327.17,72.2V1h10.2V62h20.2V72.2Z"/><path class="cls-1" d="M379.47,72.2V42.1L365.47,1h10.8l8.2,28.3h.2L392.87,1h10.8l-14,41.1V72.2Z"/><path class="cls-1" d="M430.47,72.2V10.6h-11.8V1h33.8v9.6h-11.8V72.2Z"/><path class="cls-1" d="M472.27,72.2V1h10.2V72.2Z"/><path class="cls-1" d="M539.77,51.9v4.4a15.92,15.92,0,0,1-1.25,6.25,17.09,17.09,0,0,1-3.45,5.25,16.81,16.81,0,0,1-5.15,3.65,15.08,15.08,0,0,1-6.35,1.35,22.94,22.94,0,0,1-5.9-.8,14,14,0,0,1-5.4-2.8,15.41,15.41,0,0,1-3.95-5.15,18.27,18.27,0,0,1-1.55-8V16.8a17.35,17.35,0,0,1,1.2-6.5,15.28,15.28,0,0,1,3.4-5.2,15.77,15.77,0,0,1,5.25-3.45A17.68,17.68,0,0,1,523.37.4a15.48,15.48,0,0,1,11.7,4.7,16.55,16.55,0,0,1,3.45,5.45,18.46,18.46,0,0,1,1.25,6.85v4h-10.2V18a8.28,8.28,0,0,0-1.7-5.2,5.5,5.5,0,0,0-4.6-2.2c-2.53,0-4.22.78-5,2.35A12.52,12.52,0,0,0,517,18.9V55.3a9.42,9.42,0,0,0,1.35,5.2q1.35,2.1,4.85,2.1a7.52,7.52,0,0,0,2.15-.35,6.41,6.41,0,0,0,2.15-1.15,6.1,6.1,0,0,0,1.5-2.2,8.9,8.9,0,0,0,.6-3.5V51.9Z"/><path class="cls-1" d="M596.07,21.5h-10.2V19.2a10.9,10.9,0,0,0-1.65-6q-1.65-2.55-5.55-2.55a6.43,6.43,0,0,0-3.4.8,6.6,6.6,0,0,0-2.1,2,8.35,8.35,0,0,0-1.1,3,19.26,19.26,0,0,0-.3,3.45,33.77,33.77,0,0,0,.15,3.5,6.64,6.64,0,0,0,.75,2.5,5.53,5.53,0,0,0,1.75,1.9,16.27,16.27,0,0,0,3.15,1.6l7.8,3.1a19.43,19.43,0,0,1,5.5,3.05,13.26,13.26,0,0,1,3.3,4,19.18,19.18,0,0,1,1.5,5.45,53.3,53.3,0,0,1,.4,6.95,36.67,36.67,0,0,1-.9,8.35,17.62,17.62,0,0,1-2.9,6.55,14.37,14.37,0,0,1-5.5,4.4,19.35,19.35,0,0,1-8.3,1.6,18.07,18.07,0,0,1-6.9-1.3,16.51,16.51,0,0,1-5.5-3.6,17.58,17.58,0,0,1-3.65-5.35,16.23,16.23,0,0,1-1.35-6.65V52.1h10.2v3.2a8.32,8.32,0,0,0,1.65,5.05q1.65,2.25,5.55,2.25a9,9,0,0,0,4-.75,5.37,5.37,0,0,0,2.25-2.15,7.93,7.93,0,0,0,1-3.35q.15-2,.15-4.35a44,44,0,0,0-.2-4.6,7.83,7.83,0,0,0-.8-2.9A5.69,5.69,0,0,0,583,42.7a22.86,22.86,0,0,0-3-1.5l-7.3-3q-6.6-2.7-8.85-7.15a24.6,24.6,0,0,1-2.25-11.15,26,26,0,0,1,1.1-7.6A17.16,17.16,0,0,1,566,6.1,15.09,15.09,0,0,1,571.32,2,17.92,17.92,0,0,1,579.07.4,17,17,0,0,1,586,1.8a17.86,17.86,0,0,1,5.45,3.7,15.44,15.44,0,0,1,4.6,11Z"/><path class="cls-2" d="M615.58,47.54,626,.8h5.58L642,47.54h-6.69l-2-10h-9.13l-2,10ZM632.12,31.2l-3.28-16.94h-.13L625.42,31.2Z"/><path class="cls-2" d="M644.53.8h6.69V38.15a3.7,3.7,0,0,0,.69,2.6,4.36,4.36,0,0,0,2.6.88v6.31a20.75,20.75,0,0,1-4.14-.37,7,7,0,0,1-3.15-1.41,6,6,0,0,1-2-2.79,13.58,13.58,0,0,1-.69-4.76Z"/><path class="cls-2" d="M657.13,61V14.26h6.7v3a16.5,16.5,0,0,1,2.56-2.43,6.23,6.23,0,0,1,3.81-1q4.13,0,5.84,3.16a8.82,8.82,0,0,1,.85,2.75,28.59,28.59,0,0,1,.26,4.4V36.84a51,51,0,0,1-.19,5.32,6.39,6.39,0,0,1-3,4.92,7,7,0,0,1-3.81.86,6.91,6.91,0,0,1-3.51-.89A8,8,0,0,1,664,44.52h-.13V61Zm13.33-35.91a6,6,0,0,0-.79-3.28,2.75,2.75,0,0,0-2.5-1.25,2.93,2.93,0,0,0-2.42,1.15,4.6,4.6,0,0,0-.92,3V37.63a3.62,3.62,0,0,0,.95,2.59,3.12,3.12,0,0,0,2.39,1,2.75,2.75,0,0,0,2.6-1.18,5.39,5.39,0,0,0,.69-2.76Z"/><path class="cls-2" d="M682.67,47.54V.8h6.69V17.48h.13a9.51,9.51,0,0,1,2.53-2.6,6.51,6.51,0,0,1,3.78-1,7.76,7.76,0,0,1,2.49.43,5.87,5.87,0,0,1,2.23,1.41,7,7,0,0,1,1.58,2.53,10.7,10.7,0,0,1,.59,3.77V47.54H696v-23a4.44,4.44,0,0,0-.85-2.89,3,3,0,0,0-2.43-1.05,2.81,2.81,0,0,0-2.62,1.18,6.54,6.54,0,0,0-.73,3.42V47.54Z"/><path class="cls-2" d="M720.88,47.54V44.13h-.14A12.54,12.54,0,0,1,718.09,47a6.29,6.29,0,0,1-3.78,1,8.1,8.1,0,0,1-2.4-.37,6,6,0,0,1-2.33-1.34,6.44,6.44,0,0,1-1.8-2.66,12.37,12.37,0,0,1-.69-4.5,23.42,23.42,0,0,1,.46-5,7.86,7.86,0,0,1,1.7-3.58,7.2,7.2,0,0,1,3.22-2.07,16.46,16.46,0,0,1,5.19-.69h.72a3.26,3.26,0,0,1,.72.07,4.46,4.46,0,0,0,.79.06,9,9,0,0,1,1,.07V24.5a5.09,5.09,0,0,0-.73-2.82,2.86,2.86,0,0,0-2.62-1.12,3.83,3.83,0,0,0-2.4.85,4.06,4.06,0,0,0-1.41,2.5h-6.5a10.67,10.67,0,0,1,3-7.22,9.38,9.38,0,0,1,3.15-2.07,10.87,10.87,0,0,1,4.14-.76,11.5,11.5,0,0,1,3.93.66,9.08,9.08,0,0,1,3.22,2,9.54,9.54,0,0,1,2.1,3.28,12.28,12.28,0,0,1,.79,4.6V47.54Zm0-14.31A11.28,11.28,0,0,0,719,33a6.54,6.54,0,0,0-3.71,1c-1,.68-1.55,1.92-1.55,3.71a4.92,4.92,0,0,0,.92,3.09A3.09,3.09,0,0,0,717.26,42a3.28,3.28,0,0,0,2.66-1.12,4.67,4.67,0,0,0,1-3.15Z"/></svg>